<?xml version="1.0" encoding="UTF-8" standalone="no"?>
<!-- Created with Inkscape (http://www.inkscape.org/) -->

<svg
   xmlns:dc="http://purl.org/dc/elements/1.1/"
   xmlns:cc="http://creativecommons.org/ns#"
   xmlns:rdf="http://www.w3.org/1999/02/22-rdf-syntax-ns#"
   xmlns:svg="http://www.w3.org/2000/svg"
   xmlns="http://www.w3.org/2000/svg"
   xmlns:sodipodi="http://sodipodi.sourceforge.net/DTD/sodipodi-0.dtd"
   xmlns:inkscape="http://www.inkscape.org/namespaces/inkscape"
   width="164"
   height="188"
   id="svg2"
   sodipodi:version="0.32"
   inkscape:version="0.47pre4 r22446"
   version="1.0"
   inkscape:export-filename="/home/gauthierm/Desktop/message-backgrounds.png"
   inkscape:export-xdpi="90"
   inkscape:export-ydpi="90"
   sodipodi:docname="message-backgrounds.svg"
   inkscape:output_extension="org.inkscape.output.svg.inkscape">
  <defs
     id="defs4">
    <inkscape:perspective
       sodipodi:type="inkscape:persp3d"
       inkscape:vp_x="0 : 526.18109 : 1"
       inkscape:vp_y="0 : 1000 : 0"
       inkscape:vp_z="744.09448 : 526.18109 : 1"
       inkscape:persp3d-origin="372.04724 : 350.78739 : 1"
       id="perspective10" />
    <inkscape:perspective
       sodipodi:type="inkscape:persp3d"
       inkscape:vp_x="0 : 526.18109 : 1"
       inkscape:vp_y="0 : 1000 : 0"
       inkscape:vp_z="744.09448 : 526.18109 : 1"
       inkscape:persp3d-origin="372.04724 : 350.78739 : 1"
       id="perspective3759" />
    <inkscape:perspective
       sodipodi:type="inkscape:persp3d"
       inkscape:vp_x="0 : 30 : 1"
       inkscape:vp_y="0 : 1000 : 0"
       inkscape:vp_z="60 : 30 : 1"
       inkscape:persp3d-origin="30 : 20 : 1"
       id="perspective3624" />
    <inkscape:perspective
       sodipodi:type="inkscape:persp3d"
       inkscape:vp_x="0 : 526.18109 : 1"
       inkscape:vp_y="0 : 1000 : 0"
       inkscape:vp_z="744.09448 : 526.18109 : 1"
       inkscape:persp3d-origin="372.04724 : 350.78739 : 1"
       id="perspective2567" />
    <inkscape:perspective
       sodipodi:type="inkscape:persp3d"
       inkscape:vp_x="0 : 526.18109 : 1"
       inkscape:vp_y="0 : 1000 : 0"
       inkscape:vp_z="744.09448 : 526.18109 : 1"
       inkscape:persp3d-origin="372.04724 : 350.78739 : 1"
       id="perspective2416" />
    <inkscape:perspective
       sodipodi:type="inkscape:persp3d"
       inkscape:vp_x="0 : 526.18109 : 1"
       inkscape:vp_y="0 : 1000 : 0"
       inkscape:vp_z="744.09448 : 526.18109 : 1"
       inkscape:persp3d-origin="372.04724 : 350.78739 : 1"
       id="perspective2403" />
    <inkscape:perspective
       sodipodi:type="inkscape:persp3d"
       inkscape:vp_x="0 : 526.18109 : 1"
       inkscape:vp_y="0 : 1000 : 0"
       inkscape:vp_z="744.09448 : 526.18109 : 1"
       inkscape:persp3d-origin="372.04724 : 350.78739 : 1"
       id="perspective2390" />
    <inkscape:perspective
       id="perspective10-3"
       inkscape:persp3d-origin="372.04724 : 350.78739 : 1"
       inkscape:vp_z="744.09448 : 526.18109 : 1"
       inkscape:vp_y="0 : 1000 : 0"
       inkscape:vp_x="0 : 526.18109 : 1"
       sodipodi:type="inkscape:persp3d" />
    <linearGradient
       id="linearGradient11520">
      <stop
         style="stop-color:#ffffff;stop-opacity:1.0000000;"
         offset="0.0000000"
         id="stop11522" />
      <stop
         style="stop-color:#dcdcdc;stop-opacity:1.0000000;"
         offset="1.0000000"
         id="stop11524" />
    </linearGradient>
  </defs>
  <sodipodi:namedview
     id="base"
     pagecolor="#ffffff"
     bordercolor="#666666"
     borderopacity="1.0"
     gridtolerance="10000"
     guidetolerance="10"
     objecttolerance="10"
     inkscape:pageopacity="0.0"
     inkscape:pageshadow="2"
     inkscape:zoom="1"
     inkscape:cx="144.93187"
     inkscape:cy="172.40224"
     inkscape:document-units="px"
     inkscape:current-layer="layer1"
     showgrid="false"
     inkscape:window-width="1432"
     inkscape:window-height="848"
     inkscape:window-x="2"
     inkscape:window-y="0"
     inkscape:window-maximized="0"
     showguides="true"
     inkscape:guide-bbox="true">
    <sodipodi:guide
       orientation="0,1"
       position="63.993164,193.39371"
       id="guide3633" />
  </sodipodi:namedview>
  <metadata
     id="metadata7">
    <rdf:RDF>
      <cc:Work
         rdf:about="">
        <dc:format>image/svg+xml</dc:format>
        <dc:type
           rdf:resource="http://purl.org/dc/dcmitype/StillImage" />
        <dc:title></dc:title>
      </cc:Work>
    </rdf:RDF>
  </metadata>
  <g
     inkscape:label="Layer 1"
     inkscape:groupmode="layer"
     id="layer1">
    <g
       id="g3149"
       transform="translate(23.25,9.75)">
      <rect
         y="-9.7500019"
         x="150.25"
         height="48"
         width="48"
         id="rect3604"
         style="fill:#fffbc9;fill-opacity:1" />
      <path
         id="rect3159"
         d="m 150.25,-9.750002 0,48 0,140.000002 47.99999,0 0,-140.000002 0,-48 -47.99999,0 z M 174,0.2187484 c 2.39999,2.8e-5 4.34582,0.617111 5.81249,1.84375 1.46666,1.200025 2.18749,2.781273 2.1875,4.78125 -1e-5,1.386687 -0.34251,2.571269 -1.0625,3.5312496 -0.69334,0.960016 -1.96793,2.005016 -3.78124,3.125 -1.25335,0.773347 -2.02376,1.440013 -2.34375,2 -0.32001,0.560012 -0.46876,1.564594 -0.46875,3.03125 l -1.21875,0 c -0.0533,-0.799991 -0.0625,-1.417072 -0.0625,-1.84375 -1e-5,-0.906655 0.23874,-1.816653 0.71875,-2.75 0.50666,-0.959985 0.99332,-2.009567 1.5,-3.15625 0.50665,-1.1733146 0.78124,-2.4974796 0.78125,-3.9374996 -1e-5,-1.65331 -0.3196,-2.937059 -0.90625,-3.84375 -0.58668,-0.906641 -1.40209,-1.343723 -2.46875,-1.34375 -0.72001,2.7e-5 -1.29668,0.144193 -1.75,0.4375 -0.45334,0.293359 -0.68751,0.676275 -0.6875,1.15625 -1e-5,0.320025 0.23874,0.752524 0.71875,1.3125 0.50666,0.560023 0.74999,1.181689 0.75,1.875 -1e-5,0.773353 -0.23876,1.42627 -0.71875,1.90625 -0.45334,0.453353 -1.03459,0.656269 -1.78125,0.65625 -0.77334,1.9e-5 -1.43542,-0.283731 -1.96875,-0.84375 -0.50667,-0.586646 -0.75,-1.307479 -0.75,-2.1875 0,-1.679976 0.71166,-3.058308 2.125,-4.125 1.41333,-1.093306 3.18832,-1.624973 5.375,-1.625 z m -0.21875,21.3124996 c 0.90665,6e-6 1.67707,0.33334 2.34375,1 0.66665,0.666673 0.99999,1.472921 1,2.40625 -1e-5,0.933336 -0.33335,1.739585 -1,2.40625 -0.64001,0.639998 -1.41043,0.9375 -2.34375,0.9375 -0.96001,-1e-6 -1.77084,-0.2975 -2.4375,-0.9375 -0.64001,-0.666667 -0.96876,-1.508748 -0.96875,-2.46875 -1e-5,-0.906661 0.33333,-1.677078 1,-2.34375 0.69332,-0.666659 1.49957,-0.999993 2.40625,-1 z"
         style="fill:#f0dca1;fill-opacity:1;stroke:none" />
    </g>
    <rect
       style="fill:#ff00ff;fill-opacity:1"
       id="rect2830"
       width="164"
       height="188"
       x="0"
       y="0" />
    <g
       id="g3616"
       transform="translate(72.849242,54.800777)">
      <rect
         y="-54.800774"
         x="-14.849242"
         height="48"
         width="48"
         id="rect3614"
         style="fill:#eeeeff;fill-opacity:1" />
      <rect
         style="fill:#eeeeff;fill-opacity:1;stroke:none"
         id="rect3171"
         width="48"
         height="188"
         x="-14.849242"
         y="-54.800777" />
      <path
         id="rect3207"
         d="m -14.849242,-54.800775 0,48 0,139.999995 47.999999,0 0,-139.999995 0,-48 -47.999999,0 z m 24.0312495,15.78125 c 0.399988,2.8e-5 0.733322,0.144194 0.9999995,0.4375 0.293321,0.266691 0.437488,0.604609 0.4375,1.03125 -1.1e-5,0.346693 -0.189178,1.107941 -0.5625,2.28125 -0.3466785,1.146688 -0.5000105,2.132938 -0.4999995,2.90625 l 0,1.03125 c 0.8799875,-0.506647 1.8845705,-1.362479 3.0312495,-2.5625 1.146654,-1.199975 1.917068,-1.812476 2.34375,-1.8125 0.426651,2.5e-5 0.795817,0.14419 1.0625,0.4375 0.266649,0.293355 0.374983,0.671689 0.375,1.125 -1.9e-5,0.480022 -0.148767,0.853771 -0.46875,1.09375 -0.293348,0.240023 -0.68085,0.388771 -1.1875,0.46875 -0.480016,0.08002 -1.191681,0.27377 -2.125,0.59375 -0.906677,0.293353 -1.812095,0.712103 -2.7187495,1.21875 0.7999865,0.506684 1.6558205,0.889601 2.5624995,1.15625 0.906653,0.266683 1.618318,0.451267 2.125,0.53125 0.533316,0.05335 0.965817,0.2021 1.3125,0.46875 0.373315,0.240016 0.562483,0.622933 0.5625,1.15625 -1.6e-5,0.453347 -0.139601,0.827098 -0.40625,1.09375 -0.240018,0.266682 -0.57335,0.375014 -1,0.375 -0.53335,1.4e-5 -1.055848,-0.243319 -1.5625,-0.75 -0.480014,-0.53332 -1.052097,-1.154984 -1.71875,-1.875 -0.666677,-0.74665 -1.387511,-1.273732 -2.1874995,-1.59375 l 0,0.28125 c -1.2e-5,1.333349 0.157906,2.576682 0.5312495,3.75 0.373323,1.173347 0.562488,1.840012 0.5625,2 -1.2e-5,0.42668 -0.148762,0.805012 -0.46875,1.125 -0.2933445,0.320013 -0.6670935,0.468761 -1.0937495,0.46875 -0.373342,9e-6 -0.706676,-0.144156 -1,-0.4375 -0.266675,-0.293321 -0.375009,-0.631238 -0.375,-1.03125 -1e-5,-0.373319 0.189158,-1.125403 0.5625,-2.21875 0.373325,-1.093319 0.56249,-1.9629 0.5625,-2.65625 l 0,-0.34375 -0.0625,-0.65625 0,-0.28125 c -1.013341,0.64002 -1.833341,1.261684 -2.5,1.875 -0.640006,0.586683 -1.058756,1.023765 -1.21875,1.34375 -0.160008,0.293348 -0.358339,0.532098 -0.625,0.71875 -0.266671,0.160013 -0.640421,0.250014 -1.09375,0.25 -0.960004,1.5e-5 -1.437503,-0.472902 -1.4375,-1.40625 -1e-6,-0.639986 0.238747,-1.032067 0.71875,-1.21875 0.506664,-0.213316 1.357912,-0.487899 2.53125,-0.78125 1.199993,-0.293317 2.303742,-0.766232 3.34375,-1.40625 l -0.4375,-0.25 c -0.586677,-0.399981 -1.406674,-0.72873 -2.5,-0.96875 -1.09334,-0.239978 -1.989588,-0.514563 -2.65625,-0.78125 -0.666668,-0.266645 -1.000003,-0.703728 -1,-1.34375 -1e-6,-0.399976 0.13958,-0.73331 0.40625,-1 0.266663,-0.293309 0.595413,-0.437476 0.96875,-0.4375 0.53333,2.3e-5 0.925411,0.184607 1.21875,0.53125 0.319994,0.346689 0.833327,0.878356 1.5,1.625 0.693326,0.72002 1.607908,1.39127 2.78125,2.03125 l 0,-0.5 c -9e-6,-0.906647 -0.153343,-2.001228 -0.5,-3.28125 -0.320008,-1.279973 -0.500009,-2.086225 -0.5,-2.40625 -8e-6,-0.399975 0.139574,-0.733307 0.40625,-1 0.266656,-0.266641 0.59999,-0.406223 1,-0.40625 z"
         style="fill:#aaaaff;fill-opacity:1;stroke:none" />
    </g>
    <g
       id="g3610"
       transform="translate(70.3125,-12.65625)">
      <rect
         y="12.65625"
         x="-70.3125"
         height="48"
         width="48"
         id="rect3602"
         style="fill:#ffd8d0;fill-opacity:1" />
      <path
         id="path2821"
         d="m -70.3125,12.65625 0,24 0,24 0,70 0,70 24,0 24,0 0,-70 0,-70 0,-24 0,-24 -24,0 -24,0 z m 24,9.9375 c 1.066659,2.8e-5 1.882075,0.342528 2.46875,1.0625 0.586657,0.693359 0.87499,1.693358 0.875,3 -1e-5,0.82669 -0.144176,1.677939 -0.4375,2.53125 -0.293342,0.826687 -0.676259,2.209602 -1.15625,4.15625 -0.480008,1.920015 -0.867507,4.437929 -1.1875,7.53125 l -1.15625,0 c -0.320006,-2.959987 -0.738755,-5.432902 -1.21875,-7.40625 -0.453338,-1.973314 -0.836254,-3.405813 -1.15625,-4.3125 -0.293337,-0.933311 -0.437503,-1.789144 -0.4375,-2.5625 -3e-6,-1.253308 0.28833,-2.244141 0.875,-2.9375 0.613329,-0.719972 1.464578,-1.062472 2.53125,-1.0625 z m 0,21.40625 c 0.933326,6e-6 1.739575,0.337923 2.40625,1.03125 0.666657,0.666671 0.99999,1.472921 1,2.40625 -1e-5,0.933335 -0.333343,1.703751 -1,2.34375 -0.666675,0.64 -1.477507,0.96875 -2.4375,0.96875 -0.933339,0 -1.735005,-0.32875 -2.375,-0.96875 -0.640003,-0.666665 -0.968753,-1.477498 -0.96875,-2.4375 -3e-6,-0.906663 0.33333,-1.677079 1,-2.34375 0.666662,-0.666661 1.468328,-0.999994 2.375,-1 z"
         style="fill:#ffbab0;fill-opacity:1" />
    </g>
    <g
       style="font-size:40px;font-style:normal;font-variant:normal;font-weight:normal;font-stretch:normal;fill:#000000;fill-opacity:1;stroke:none;font-family:FreeSerif;-inkscape-font-specification:FreeSerif"
       id="text2815"
       transform="translate(14.849242,-17.677669)" />
    <text
       xml:space="preserve"
       style="font-size:12px;font-style:normal;font-variant:normal;font-weight:normal;font-stretch:normal;fill:#000000;fill-opacity:1;stroke:none;font-family:FreeSerif;-inkscape-font-specification:FreeSerif"
       x="129.84828"
       y="-5.3937101"
       id="text3621"><tspan
         sodipodi:role="line"
         id="tspan3623"
         x="129.84828"
         y="-5.3937101">note</tspan></text>
    <text
       xml:space="preserve"
       style="font-size:12px;font-style:normal;font-variant:normal;font-weight:normal;font-stretch:normal;fill:#000000;fill-opacity:1;stroke:none;font-family:FreeSerif;-inkscape-font-specification:FreeSerif"
       x="75.98481"
       y="-5.3937101"
       id="text3625"><tspan
         sodipodi:role="line"
         id="tspan3627"
         x="75.98481"
         y="-5.3937101">tip</tspan></text>
    <text
       xml:space="preserve"
       style="font-size:12px;font-style:normal;font-variant:normal;font-weight:normal;font-stretch:normal;fill:#000000;fill-opacity:1;stroke:none;font-family:FreeSerif;-inkscape-font-specification:FreeSerif"
       x="5.0110312"
       y="-5.3937101"
       id="text3629"><tspan
         sodipodi:role="line"
         id="tspan3631"
         x="5.0110312"
         y="-5.3937101">warning</tspan></text>
    <g
       id="g3153"
       transform="translate(-52.5,11.5)">
      <rect
         style="fill:#fffbc9;fill-opacity:1"
         id="rect3147"
         width="48"
         height="48"
         x="168.5"
         y="-11.5" />
      <path
         id="rect3138"
         d="m 168.5,-11.5 0,48 0,140 48,0 0,-140 0,-48 -48,0 z m 24,9 c 2.28455,0 4.5787,0.80325 6.4375,2.37499998 3.71759,3.14348602 4.64523,8.51479102 2.21875,12.75000002 -0.89245,1.798658 -3.02285,2.965769 -4.0625,4.6875 -2.80633,1.138475 -6.04343,1.29168 -8.96875,0.375 -0.94065,-1.922102 -3.32916,-3.143621 -4.28125,-5.0625 -2.42648,-4.235209 -1.4676,-9.606514 2.25,-12.75000002 C 187.95254,-1.69675 190.21543,-2.5 192.5,-2.5 z m 4.0625,21.125 c -0.043,0.224846 -0.0625,0.472141 -0.0625,0.71875 l 0,0.40625 c -2.53857,0.88533 -5.38283,0.979981 -8,0.25 l 0,-0.65625 c 0,-0.162613 -0.012,-0.315851 -0.0312,-0.46875 2.66076,0.681513 5.50172,0.582917 8.09375,-0.25 z m -0.0625,2.25 0,1.0625 c -2.53857,0.88533 -5.38283,0.979988 -8,0.25 l 0,-1.125 c 2.62758,0.666512 5.43729,0.621296 8,-0.1875 z m 0,2.1875 0,1.09375 c -2.53857,0.88533 -5.38283,0.979974 -8,0.25 l 0,-1.125 c 2.62758,0.666512 5.43729,0.590046 8,-0.21875 z m -0.5625,2.375 -1.4375,1.15625 -0.90625,0 c 0.0116,0.04323 0,0.11079 0,0.15625 0,0.414576 -0.46825,0.75 -1.0625,0.75 -0.59425,0 -1.09375,-0.335424 -1.09375,-0.75 0,-0.04545 0.0203,-0.11302 0.0312,-0.15625 l -0.96875,0 -1.125,-0.90625 c 2.18327,0.414576 4.43338,0.328017 6.5625,-0.25 z"
         style="fill:#f0dca1;fill-opacity:1" />
    </g>
  </g>
</svg>
