<?xml version="1.0" encoding="UTF-8" standalone="no"?>
<!-- Created with Inkscape (http://www.inkscape.org/) -->
<svg
   xmlns:dc="http://purl.org/dc/elements/1.1/"
   xmlns:cc="http://web.resource.org/cc/"
   xmlns:rdf="http://www.w3.org/1999/02/22-rdf-syntax-ns#"
   xmlns:svg="http://www.w3.org/2000/svg"
   xmlns="http://www.w3.org/2000/svg"
   xmlns:sodipodi="http://inkscape.sourceforge.net/DTD/sodipodi-0.dtd"
   xmlns:inkscape="http://www.inkscape.org/namespaces/inkscape"
   width="850.00000pt"
   height="850.00000pt"
   id="svg10488"
   sodipodi:version="0.32"
   inkscape:version="0.40+cvs"
   sodipodi:docbase="C:\DOCUME~1\Owner\MYDOCU~1\E-Lance\Projects\11abacus.com\W3\html\dev\pear\icons"
   sodipodi:docname="PEAR-L~1.SVG">
  <defs
     id="defs3" />
  <sodipodi:namedview
     inkscape:window-y="29"
     inkscape:window-x="22"
     inkscape:window-height="541"
     inkscape:window-width="784"
     id="base"
     pagecolor="#ffffff"
     bordercolor="#666666"
     borderopacity="1.0"
     inkscape:pageopacity="0.0"
     inkscape:pageshadow="2"
     inkscape:zoom="0.34070588"
     inkscape:cx="531.25000"
     inkscape:cy="531.25000"
     inkscape:document-units="px"
     inkscape:current-layer="layer1" />
  <metadata
     id="metadata4">
    <rdf:RDF
       id="RDF5">
      <cc:Work
         rdf:about=""
         id="Work6">
        <dc:format
           id="format7">image/svg+xml</dc:format>
        <dc:type
           id="type9"
           rdf:resource="http://purl.org/dc/dcmitype/StillImage" />
      </cc:Work>
    </rdf:RDF>
  </metadata>
  <g
     inkscape:label="Layer 1"
     inkscape:groupmode="layer"
     id="layer1">
    <g
       id="g2110">
      <rect
         inkscape:export-ydpi="5.2399998"
         inkscape:export-xdpi="5.2399998"
         inkscape:export-filename="C:\DOCUME~1\Owner\MYDOCU~1\E-Lance\Projects\11abacus.com\W3\html\dev\pear\icons\path1300.png"
         y="500.93362"
         x="488.10574"
         height="540.00000"
         width="540.00000"
         id="rect2063"
         style="fill:#339900;fill-opacity:1.0000000;stroke:#336600;stroke-width:10.000000;stroke-linecap:round;stroke-linejoin:round;stroke-miterlimit:4.0000000;stroke-opacity:1.0000000" />
      <g
         id="g2105">
        <path
           inkscape:export-ydpi="5.2399998"
           inkscape:export-xdpi="5.2399998"
           inkscape:export-filename="C:\DOCUME~1\Owner\MYDOCU~1\E-Lance\Projects\11abacus.com\W3\html\dev\pear\icons\path1300.png"
           style="fill:#ffffff;fill-opacity:1.0000000"
           d="M 762.09230,1001.7121 C 793.81606,998.56040 823.03638,987.00797 848.83644,967.41723 C 856.08822,961.91081 871.15303,946.95145 876.61583,939.83235 C 900.65176,908.50911 912.01890,872.14276 909.85396,833.49552 C 909.19322,821.70092 908.86666,819.43193 906.94747,813.30235 C 904.23963,804.65405 903.40356,798.50659 903.73431,789.67658 C 904.17269,777.97368 906.07726,772.30122 912.03569,764.95195 C 926.68768,746.88002 936.59819,722.91537 939.13995,699.41117 C 940.03797,691.10704 939.50939,677.18761 937.98061,668.88296 C 935.48338,655.31768 929.36304,640.76240 921.51436,629.72347 C 916.74732,623.01870 906.62739,612.83328 899.94178,608.01114 C 894.91111,604.38273 894.88406,604.34983 895.24867,602.31208 C 895.93274,598.48899 899.37664,589.15404 901.33400,585.81728 C 903.94527,581.36576 911.58230,573.82666 916.17729,571.16437 C 921.27990,568.20800 927.93358,565.72167 935.03927,564.11608 C 938.32109,563.37452 941.26220,562.51184 941.57501,562.19900 C 942.40968,561.36434 936.90705,540.46471 935.67972,539.80784 C 934.32013,539.08023 923.19548,541.11049 916.73722,543.26487 C 897.59294,549.65113 881.99748,562.29774 868.48541,582.39309 C 865.16382,587.33300 865.00409,587.47736 863.25208,587.12263 C 845.07784,583.44294 836.05359,582.54398 821.37359,582.95088 C 808.30760,583.31305 800.52841,584.63090 790.05248,588.25693 C 777.25175,592.68763 766.72285,599.33641 756.51948,609.43232 C 746.77567,619.07351 739.74554,629.04419 730.71205,646.03450 C 725.53515,655.77125 721.90694,660.48008 715.90895,665.24646 C 709.58124,670.27486 706.30282,671.90968 697.48949,674.43151 C 672.63930,681.54211 654.53963,690.16739 636.91583,703.29753 C 601.66369,729.56117 580.36421,767.45867 575.16200,813.17423 C 574.35123,820.29902 574.34601,839.39975 575.15275,847.00393 C 580.43176,896.76280 605.88750,941.81601 645.72385,971.90540 C 652.62281,977.11638 664.77226,983.71710 676.23283,988.48088 C 691.60506,994.87058 711.69000,999.99880 727.90947,1001.6754 C 734.63695,1002.3707 755.23962,1002.3929 762.09230,1001.7121 z "
           id="path1296" />
        <path
           inkscape:export-ydpi="5.2399998"
           inkscape:export-xdpi="5.2399998"
           inkscape:export-filename="C:\DOCUME~1\Owner\MYDOCU~1\E-Lance\Projects\11abacus.com\W3\html\dev\pear\icons\path1300.png"
           style="fill:#33990f;fill-opacity:0.94117647"
           d="M 678.68573,976.00087 C 675.72076,974.45908 669.98015,971.02555 665.92880,968.37071 C 616.99309,936.30392 588.22514,881.76212 590.26760,824.92306 C 591.36018,794.51775 600.80801,766.89914 617.94165,744.02417 C 622.40545,738.06461 634.43079,725.74976 640.50964,720.91288 C 657.81144,707.14601 678.39981,697.65010 702.01759,692.54379 C 710.14904,690.78572 712.20985,690.75086 715.44440,692.31668 C 721.73104,695.35999 723.14297,704.13946 718.14892,709.13351 C 716.01921,711.26322 715.39373,711.48392 704.98493,713.77841 C 691.56239,716.73724 676.37401,722.76767 665.44007,729.47938 C 620.25947,757.21314 600.80437,813.41510 617.06351,869.22973 C 626.47112,901.52434 647.53083,930.15538 676.08137,949.46564 C 678.46674,951.07902 683.49582,954.17464 687.25708,956.34479 C 695.20836,960.93244 696.83852,962.93967 696.83852,968.14221 C 696.83852,972.76438 694.58585,976.10036 690.23783,977.91707 C 686.68941,979.39972 684.53461,979.04227 678.68573,976.00087 z "
           id="path1298" />
        <path
           inkscape:export-ydpi="5.2399998"
           inkscape:export-xdpi="5.2399998"
           style="fill-opacity:1.0000000;fill:#339900"
           d="M 742.04719,681.27456 C 736.97608,678.76443 735.36058,673.89004 737.30414,666.96358 C 745.49751,637.76417 765.20704,613.13991 788.56900,602.91545 C 800.98317,597.48231 810.97159,595.68252 826.18389,596.13767 C 837.44196,596.47451 842.52548,597.31434 850.78170,600.20137 C 859.77219,603.34515 862.58194,606.23400 862.58784,612.33975 C 862.59208,616.74581 860.71405,619.88857 857.00348,621.68483 C 853.70642,623.28092 851.02877,623.21909 846.67592,621.44634 C 839.85162,618.66709 834.43971,617.59572 825.73495,617.30080 C 816.59607,616.99117 811.30698,617.62178 804.13359,619.87629 C 785.28188,625.80119 770.91998,640.08097 761.76799,661.99968 C 760.35676,665.37952 758.67406,669.91796 758.02866,672.08511 C 756.49372,677.23915 754.83456,679.63679 751.71090,681.21480 C 748.50421,682.83478 745.24000,682.85496 742.04719,681.27456 z "
           id="path1300" />
      </g>
    </g>
    <g
       id="g10397"
       transform="matrix(0.949630,0.000000,0.000000,0.949630,-108.3727,-137.8863)"
       inkscape:export-filename="C:\Documents and Settings\Owner\Desktop\pear_10x13.png"
       inkscape:export-xdpi="2.4515815"
       inkscape:export-ydpi="2.4515815">
      <path
         style="fill:#339900;fill-opacity:1.0000000"
         d="M 356.49800,650.87654 C 389.90445,647.55765 420.67466,635.39246 447.84320,614.76259 C 455.47963,608.96410 471.34350,593.21127 477.09606,585.71456 C 502.40690,552.72988 514.37697,514.43460 512.09720,473.73744 C 511.40141,461.31724 511.05753,458.92790 509.03654,452.47320 C 506.18507,443.36617 505.30466,436.89264 505.65295,427.59427 C 506.11458,415.27063 508.12017,409.29730 514.39465,401.55821 C 529.82381,382.52771 540.25999,357.29193 542.93657,332.54103 C 543.88222,323.79644 543.32560,309.13870 541.71573,300.39355 C 539.08604,286.10875 532.64107,270.78143 524.37608,259.15698 C 519.35619,252.09657 508.69948,241.37090 501.65926,236.29299 C 496.36175,232.47212 496.33327,232.43748 496.71722,230.29164 C 497.43757,226.26577 501.06414,216.43567 503.12532,212.92193 C 505.87510,208.23429 513.91721,200.29530 518.75593,197.49180 C 524.12919,194.37862 531.13579,191.76041 538.61838,190.06966 C 542.07427,189.28877 545.17138,188.38033 545.50078,188.05089 C 546.37973,187.17196 540.58523,165.16378 539.29280,164.47207 C 537.86109,163.70586 526.14637,165.84381 519.34556,168.11247 C 499.18583,174.83746 482.76316,188.15487 468.53439,209.31611 C 465.03661,214.51804 464.86841,214.67006 463.02347,214.29652 C 443.88524,210.42165 434.38233,209.47501 418.92368,209.90349 C 405.16464,210.28487 396.97283,211.67262 385.94124,215.49098 C 372.46154,220.15669 361.37417,227.15814 350.62959,237.78955 C 340.36895,247.94212 332.96593,258.44167 323.45329,276.33317 C 318.00180,286.58638 314.18114,291.54497 307.86501,296.56417 C 301.20167,301.85928 297.74935,303.58082 288.46855,306.23641 C 262.30026,313.72417 243.24056,322.80695 224.68196,336.63353 C 187.55999,364.29024 165.13075,404.19789 159.65260,452.33828 C 158.79883,459.84098 158.79333,479.95485 159.64286,487.96236 C 165.20188,540.36053 192.00783,587.80344 233.95717,619.48882 C 241.22207,624.97620 254.01594,631.92703 266.08440,636.94349 C 282.27200,643.67211 303.42228,649.07234 320.50206,650.83786 C 327.58638,651.57010 349.28185,651.59346 356.49800,650.87654 z "
         id="path1336" />
      <path
         style="fill:#ffffff;fill-opacity:1.0000000"
         d="M 268.66741,623.80152 C 265.54517,622.17795 259.50007,618.56230 255.23383,615.76665 C 203.70248,581.99898 173.40863,524.56419 175.55943,464.71029 C 176.70996,432.69223 186.65892,403.60868 204.70136,379.52038 C 209.40192,373.24472 222.06511,360.27667 228.46639,355.18323 C 246.68591,340.68614 268.36632,330.68655 293.23683,325.30939 C 301.79959,323.45807 303.96970,323.42136 307.37582,325.07024 C 313.99591,328.27497 315.48274,337.52012 310.22379,342.77906 C 307.98112,345.02174 307.32246,345.25414 296.36156,347.67034 C 282.22707,350.78611 266.23307,357.13640 254.71918,364.20411 C 207.14212,393.40892 186.65509,452.59193 203.77664,511.36706 C 213.68324,545.37463 235.86000,575.52431 265.92491,595.85882 C 268.43680,597.55777 273.73263,600.81759 277.69340,603.10285 C 286.06643,607.93384 287.78305,610.04753 287.78305,615.52603 C 287.78305,620.39336 285.41090,623.90629 280.83225,625.81936 C 277.09562,627.38065 274.82652,627.00424 268.66741,623.80152 z "
         id="path10393" />
      <path
         style="fill:#ffffff;fill-opacity:1.0000000"
         d="M 335.38967,313.44243 C 330.04958,310.79915 328.34839,305.66622 330.39504,298.37237 C 339.02300,267.62417 359.77796,241.69380 384.37907,230.92701 C 397.45171,225.20569 407.96994,223.31044 423.98912,223.78973 C 435.84434,224.14444 441.19750,225.02881 449.89164,228.06897 C 459.35900,231.37951 462.31779,234.42158 462.32400,240.85119 C 462.32847,245.49096 460.35082,248.80042 456.44344,250.69195 C 452.97149,252.37270 450.15182,252.30759 445.56808,250.44081 C 438.38181,247.51415 432.68284,246.38595 423.51637,246.07539 C 413.89275,245.74933 408.32312,246.41339 400.76924,248.78749 C 380.91760,255.02665 365.79392,270.06386 356.15649,293.14517 C 354.67041,296.70428 352.89846,301.48345 352.21882,303.76555 C 350.60247,309.19297 348.85530,311.71778 345.56596,313.37950 C 342.18918,315.08540 338.75183,315.10665 335.38967,313.44243 z "
         id="path10391" />
    </g>
  </g>
</svg>
